<svg x="0" y="0" width="300" height="300" version="1.1" xmlns="http://www.w3.org/2000/svg" xmlns:xlink="http://www.w3.org/1999/xlink"><g data-paper-data="{&quot;description&quot;:&quot;Logo for Map My Members\n=======================\n\nThis logo was generated by MarkMaker and is composed of elements designed by others.\n\nThe font is Marcellus SC designed by Astigmatic and released under the OFL license via Google Fonts: https://www.google.com/fonts/specimen/Marcellus SC. The font includes this copyright statement: Copyright (c) 2012 by Brian J. Bonislawsky DBA Astigmatic (AOETI) (astigma@astigmatic.com), with Reserved Font Name \\\&quot;Marcellus\\\n\nThe symbol is 'slime' designed by Brad Ashburn and released into the public domain at the Noun Project: https://thenounproject.com/term/slime/62795.\n\nMarkMaker uses semantic data from the Princeton University WordNet database http://wordnet.princeton.edu and font descriptions from Google Fonts https://www.google.com/fonts.\n\nThis design is inspired by designs that past users of MarkMaker have liked. As a result, it may be visually similar to past or future designs generated by the system. There is no guarantee that it is unique, original, or suitable in any way for use as a logo.\n\n&quot;}" fill="#0a6464" stroke="none" stroke-width="1" stroke-linecap="butt" stroke-linejoin="miter" stroke-miterlimit="none" stroke-dasharray="" stroke-dashoffset="0" font-family="none" font-weight="none" font-size="none" text-anchor="start" mix-blend-mode="normal"><g data-paper-data="{&quot;elementType&quot;:&quot;logo&quot;}" stroke-miterlimit="10" font-family="sans-serif" font-weight="normal" font-size="12"><g data-paper-data="{&quot;elementType&quot;:&quot;text&quot;}"><g data-paper-data="{&quot;baseline&quot;:70.01953125,&quot;elementType&quot;:&quot;row&quot;}"><g data-paper-data="{&quot;baselineProportion&quot;:1,&quot;fontSize&quot;:100,&quot;baseline&quot;:70.01953125,&quot;elementType&quot;:&quot;word&quot;}"><path d="M158.43092,140.53635c0.08287,-0.12053 0.17703,-0.29945 0.2825,-0.53674c0.10547,-0.2373 0.18833,-0.53674 0.2486,-0.89834c0.08287,-0.52733 0.17515,-1.12057 0.27685,-1.77973c0.1017,-0.65916 0.20716,-1.35034 0.3164,-2.07353c0.10923,-0.72319 0.21846,-1.46333 0.3277,-2.22043c0.10923,-0.75709 0.2147,-1.50288 0.3164,-2.23738c0.1017,-0.73449 0.19963,-1.44262 0.2938,-2.12438c0.09417,-0.68176 0.17891,-1.30514 0.25425,-1.87013c0.07533,-0.56499 0.13748,-1.05654 0.18645,-1.47463c0.04897,-0.4181 0.08475,-0.73261 0.10735,-0.94354l1.43509,0l7.10763,13.28866l7.05113,-13.28866l1.07349,0l1.85318,13.42426c0.05273,0.42186 0.10923,0.78346 0.1695,1.08479c0.06027,0.30133 0.12053,0.55934 0.1808,0.77404c0.06027,0.2147 0.11865,0.39173 0.17515,0.53109c0.0565,0.13937 0.11112,0.25425 0.16385,0.34465l0,0.0452l-2.84757,0l0,-0.0452c0.03767,-0.08287 0.07345,-0.21846 0.10735,-0.4068c0.0339,-0.18833 0.05085,-0.41433 0.05085,-0.67799c0,-0.09793 -0.00377,-0.19775 -0.0113,-0.29945c-0.00753,-0.1017 -0.01883,-0.21281 -0.0339,-0.33335l-1.43509,-10.82529l-6.66693,12.54287l-0.77969,-0.0904l-6.71213,-12.56547c-0.26366,1.78538 -0.49343,3.43516 -0.68929,4.94935c-0.08287,0.64786 -0.16573,1.29384 -0.2486,1.93793c-0.08287,0.64409 -0.15632,1.24487 -0.22035,1.80233c-0.06403,0.55746 -0.11488,1.04901 -0.15255,1.47463c-0.03767,0.42563 -0.0565,0.74014 -0.0565,0.94354c0,0.25613 0.00753,0.48213 0.0226,0.67799c0.01507,0.19586 0.03013,0.3616 0.0452,0.49719c0.0226,0.1582 0.0452,0.29756 0.0678,0.4181l-2.25998,0l0,-0.0452z" data-paper-data="{&quot;elementType&quot;:&quot;letter&quot;,&quot;baseline&quot;:70.01953125,&quot;baselineProportion&quot;:1,&quot;fontSize&quot;:100}"></path><path d="M193.36916,136.76219c-0.2034,0 -0.45765,0 -0.76274,0c-0.3051,0 -0.63844,0 -1.00004,0c-0.3616,0 -0.73449,0 -1.11869,0c-0.3842,0 -0.74956,0.00188 -1.09609,0.00565c-0.34653,0.00377 -0.66293,0.00753 -0.94919,0.0113c-0.28626,0.00377 -0.50849,0.00565 -0.66669,0.00565l-0.4181,0.88139c-0.1808,0.3616 -0.33523,0.67611 -0.4633,0.94354c-0.12807,0.26743 -0.23353,0.50284 -0.3164,0.70624c-0.08287,0.2034 -0.14313,0.37855 -0.1808,0.52544c-0.03767,0.1469 -0.0565,0.28438 -0.0565,0.41245c0,0.08287 0.00377,0.14502 0.0113,0.18645c0.00753,0.04143 0.01883,0.07345 0.0339,0.09605l0,0.0452l-1.98878,0l0,-0.0452c0.05273,-0.05273 0.1356,-0.16761 0.2486,-0.34465c0.113,-0.17703 0.24295,-0.39361 0.38985,-0.64974c0.1469,-0.25613 0.3051,-0.54616 0.4746,-0.87009c0.1695,-0.32393 0.33711,-0.65916 0.50284,-1.00569l4.61035,-9.5145l0.84749,0l4.51995,9.5145c0.17326,0.3616 0.34841,0.70813 0.52544,1.03959c0.17703,0.33146 0.34088,0.62714 0.49154,0.88704c0.15067,0.2599 0.2825,0.4746 0.3955,0.64409c0.113,0.1695 0.18833,0.26931 0.226,0.29945l0,0.0452l-2.89277,0c0.01507,-0.06027 0.0226,-0.11488 0.0226,-0.16385c0,-0.04897 0,-0.10358 0,-0.16385c0,-0.16573 -0.03578,-0.36536 -0.10735,-0.59889c-0.07157,-0.23353 -0.1582,-0.47271 -0.2599,-0.71754c-0.1017,-0.24483 -0.20716,-0.48025 -0.3164,-0.70624c-0.10923,-0.226 -0.19775,-0.41433 -0.26555,-0.56499l-0.4407,-0.90399 M188.21642,135.8808l0.68929,0c0.3164,0 0.65351,-0.00188 1.01134,-0.00565c0.35783,-0.00377 0.71754,-0.00565 1.07914,-0.00565c0.3616,0 0.71189,-0.00188 1.05089,-0.00565c0.339,-0.00377 0.64409,-0.00565 0.91529,-0.00565l-2.33908,-4.99455l-2.40688,5.01715z" data-paper-data="{&quot;elementType&quot;:&quot;letter&quot;,&quot;baseline&quot;:53.7109375,&quot;baselineProportion&quot;:1,&quot;fontSize&quot;:100}"></path><path d="M204.62285,135.8582c0,0.67799 0.00753,1.27312 0.0226,1.78538c0.01507,0.51226 0.03578,0.95484 0.06215,1.32774c0.02637,0.3729 0.05838,0.68741 0.09605,0.94354c0.03767,0.25613 0.08287,0.4633 0.1356,0.62149l0,0.0452l-2.61027,0l0,-0.0452c0.05273,-0.1582 0.09982,-0.3616 0.14125,-0.61019c0.04143,-0.2486 0.07533,-0.55558 0.1017,-0.92094c0.02637,-0.36536 0.04708,-0.80041 0.06215,-1.30514c0.01507,-0.50473 0.0226,-1.09609 0.0226,-1.77408l0,-2.84757c0,-0.67799 -0.00753,-1.26747 -0.0226,-1.76843c-0.01507,-0.50096 -0.03578,-0.93412 -0.06215,-1.29949c-0.02637,-0.36536 -0.06027,-0.67234 -0.1017,-0.92094c-0.04143,-0.2486 -0.08852,-0.452 -0.14125,-0.61019l0,-0.0452c0.16573,0.00753 0.33146,0.01507 0.49719,0.0226c0.14313,0.00753 0.29568,0.01318 0.45765,0.01695c0.16196,0.00377 0.31451,0.00565 0.45765,0.00565c0.24106,0 0.59701,-0.0226 1.06784,-0.0678c0.47083,-0.0452 1.02641,-0.0678 1.66673,-0.0678c0.58759,0 1.13375,0.07722 1.63848,0.23165c0.50473,0.15443 0.93977,0.38231 1.30514,0.68364c0.36536,0.30133 0.65163,0.66858 0.85879,1.10174c0.20716,0.43316 0.31075,0.93224 0.31075,1.49723c0,0.66293 -0.12807,1.24864 -0.3842,1.75713c-0.25613,0.50849 -0.60454,0.93412 -1.04524,1.27689c-0.4407,0.34276 -0.95861,0.60078 -1.55373,0.77404c-0.59513,0.17326 -1.22792,0.2599 -1.89838,0.2599c-0.35406,0 -0.71566,-0.0226 -1.08479,-0.0678z M204.62285,135.0785c0.15067,0.0226 0.29945,0.04332 0.44635,0.06215c0.1469,0.01883 0.29191,0.02825 0.43505,0.02825c0.4294,0 0.82301,-0.06592 1.18084,-0.19775c0.35783,-0.13183 0.66293,-0.32958 0.91529,-0.59324c0.25236,-0.26366 0.44823,-0.59889 0.58759,-1.00569c0.13937,-0.4068 0.20905,-0.88139 0.20905,-1.42379c0,-0.43693 -0.04897,-0.83242 -0.1469,-1.18649c-0.09793,-0.35406 -0.24295,-0.65728 -0.43505,-0.90964c-0.1921,-0.25236 -0.43128,-0.44823 -0.71754,-0.58759c-0.28626,-0.13937 -0.61773,-0.20905 -0.99439,-0.20905c-0.24106,0 -0.45388,0.00942 -0.63844,0.02825c-0.18456,0.01883 -0.34088,0.03955 -0.46895,0.06215c-0.14313,0.03013 -0.26743,0.06027 -0.3729,0.0904l0,5.84204" data-paper-data="{&quot;elementType&quot;:&quot;letter&quot;,&quot;baseline&quot;:52.880859375,&quot;baselineProportion&quot;:1,&quot;fontSize&quot;:100}"></path></g></g><g data-paper-data="{&quot;baseline&quot;:70.01953125,&quot;elementType&quot;:&quot;row&quot;}"><g data-paper-data="{&quot;baselineProportion&quot;:1,&quot;fontSize&quot;:100,&quot;baseline&quot;:70.01953125,&quot;elementType&quot;:&quot;word&quot;}"><path d="M158.43092,157.89297c0.08287,-0.12053 0.17703,-0.29945 0.2825,-0.53674c0.10547,-0.2373 0.18833,-0.53674 0.2486,-0.89834c0.08287,-0.52733 0.17515,-1.12057 0.27685,-1.77973c0.1017,-0.65916 0.20716,-1.35034 0.3164,-2.07353c0.10923,-0.72319 0.21846,-1.46333 0.3277,-2.22043c0.10923,-0.75709 0.2147,-1.50288 0.3164,-2.23738c0.1017,-0.73449 0.19963,-1.44262 0.2938,-2.12438c0.09417,-0.68176 0.17891,-1.30514 0.25425,-1.87013c0.07533,-0.56499 0.13748,-1.05654 0.18645,-1.47463c0.04897,-0.4181 0.08475,-0.73261 0.10735,-0.94354l1.43509,0l7.10763,13.28866l7.05113,-13.28866l1.07349,0l1.85318,13.42426c0.05273,0.42186 0.10923,0.78346 0.1695,1.08479c0.06027,0.30133 0.12053,0.55934 0.1808,0.77404c0.06027,0.2147 0.11865,0.39173 0.17515,0.53109c0.0565,0.13937 0.11112,0.25425 0.16385,0.34465l0,0.0452l-2.84757,0l0,-0.0452c0.03767,-0.08287 0.07345,-0.21846 0.10735,-0.4068c0.0339,-0.18833 0.05085,-0.41433 0.05085,-0.67799c0,-0.09793 -0.00377,-0.19775 -0.0113,-0.29945c-0.00753,-0.1017 -0.01883,-0.21281 -0.0339,-0.33335l-1.43509,-10.82529l-6.66693,12.54287l-0.77969,-0.0904l-6.71213,-12.56547c-0.26366,1.78538 -0.49343,3.43516 -0.68929,4.94935c-0.08287,0.64786 -0.16573,1.29384 -0.2486,1.93793c-0.08287,0.64409 -0.15632,1.24487 -0.22035,1.80233c-0.06403,0.55746 -0.11488,1.04901 -0.15255,1.47463c-0.03767,0.42563 -0.0565,0.74014 -0.0565,0.94354c0,0.25613 0.00753,0.48213 0.0226,0.67799c0.01507,0.19586 0.03013,0.3616 0.0452,0.49719c0.0226,0.1582 0.0452,0.29756 0.0678,0.4181l-2.25998,0l0,-0.0452z" data-paper-data="{&quot;elementType&quot;:&quot;letter&quot;,&quot;baseline&quot;:70.01953125,&quot;baselineProportion&quot;:1,&quot;fontSize&quot;:100}"></path><path d="M191.31258,153.28262c0,0.67799 0.00753,1.26935 0.0226,1.77408c0.01507,0.50473 0.03578,0.93977 0.06215,1.30514c0.02637,0.36536 0.06027,0.67234 0.1017,0.92094c0.04143,0.2486 0.08852,0.452 0.14125,0.61019l0,0.0452l-2.62157,0l0,-0.0452c0.05273,-0.1582 0.09982,-0.3616 0.14125,-0.61019c0.04143,-0.2486 0.07533,-0.55558 0.1017,-0.92094c0.02637,-0.36536 0.04708,-0.80041 0.06215,-1.30514c0.01507,-0.50473 0.0226,-1.09609 0.0226,-1.77408l0,-0.77969l-4.06796,-5.36744c-0.2712,-0.3616 -0.53109,-0.65351 -0.77969,-0.87574c-0.2486,-0.22223 -0.43693,-0.36348 -0.56499,-0.42375l0,-0.0452l3.20917,0c0,0.1356 0.04897,0.34465 0.1469,0.62714c0.09793,0.2825 0.29756,0.62714 0.59889,1.03394l2.87017,3.79676l2.93797,-3.95496c0.21093,-0.28626 0.37101,-0.56876 0.48025,-0.84749c0.10923,-0.27873 0.16385,-0.49719 0.16385,-0.65539l2.06788,0l0,0.0452c-0.18833,0.12807 -0.38231,0.29003 -0.58194,0.48589c-0.19963,0.19586 -0.43128,0.4746 -0.69494,0.83619l-3.81936,5.17535l0,0.94919z" data-paper-data="{&quot;elementType&quot;:&quot;letter&quot;,&quot;baseline&quot;:52.490234375,&quot;baselineProportion&quot;:1,&quot;fontSize&quot;:100}"></path></g></g><g data-paper-data="{&quot;baseline&quot;:70.01953125,&quot;elementType&quot;:&quot;row&quot;}"><g data-paper-data="{&quot;baselineProportion&quot;:0.9801777170198223,&quot;fontSize&quot;:100,&quot;baseline&quot;:70.01953125,&quot;elementType&quot;:&quot;word&quot;}"><path d="M158.43092,175.24959c0.08287,-0.12053 0.17703,-0.29945 0.2825,-0.53674c0.10547,-0.2373 0.18833,-0.53674 0.2486,-0.89834c0.08287,-0.52733 0.17515,-1.12057 0.27685,-1.77973c0.1017,-0.65916 0.20716,-1.35034 0.3164,-2.07353c0.10923,-0.72319 0.21846,-1.46333 0.3277,-2.22043c0.10923,-0.75709 0.2147,-1.50288 0.3164,-2.23738c0.1017,-0.73449 0.19963,-1.44262 0.2938,-2.12438c0.09417,-0.68176 0.17891,-1.30514 0.25425,-1.87013c0.07533,-0.56499 0.13748,-1.05654 0.18645,-1.47463c0.04897,-0.4181 0.08475,-0.73261 0.10735,-0.94354l1.43509,0l7.10763,13.28866l7.05113,-13.28866l1.07349,0l1.85318,13.42426c0.05273,0.42186 0.10923,0.78346 0.1695,1.08479c0.06027,0.30133 0.12053,0.55934 0.1808,0.77404c0.06027,0.2147 0.11865,0.39173 0.17515,0.53109c0.0565,0.13937 0.11112,0.25425 0.16385,0.34465l0,0.0452l-2.84757,0l0,-0.0452c0.03767,-0.08287 0.07345,-0.21846 0.10735,-0.4068c0.0339,-0.18833 0.05085,-0.41433 0.05085,-0.67799c0,-0.09793 -0.00377,-0.19775 -0.0113,-0.29945c-0.00753,-0.1017 -0.01883,-0.21281 -0.0339,-0.33335l-1.43509,-10.82529l-6.66693,12.54287l-0.77969,-0.0904l-6.71213,-12.56547c-0.26366,1.78538 -0.49343,3.43516 -0.68929,4.94935c-0.08287,0.64786 -0.16573,1.29384 -0.2486,1.93793c-0.08287,0.64409 -0.15632,1.24487 -0.22035,1.80233c-0.06403,0.55746 -0.11488,1.04901 -0.15255,1.47463c-0.03767,0.42563 -0.0565,0.74014 -0.0565,0.94354c0,0.25613 0.00753,0.48213 0.0226,0.67799c0.01507,0.19586 0.03013,0.3616 0.0452,0.49719c0.0226,0.1582 0.0452,0.29756 0.0678,0.4181l-2.25998,0l0,-0.0452z" data-paper-data="{&quot;elementType&quot;:&quot;letter&quot;,&quot;baseline&quot;:70.01953125,&quot;baselineProportion&quot;:1,&quot;fontSize&quot;:100}"></path><path d="M185.99034,163.14741c0.73826,0 1.49535,-0.00188 2.27128,-0.00565c0.77593,-0.00377 1.49535,-0.0113 2.15828,-0.0226c0.66293,-0.0113 1.23357,-0.02448 1.71193,-0.03955c0.47836,-0.01507 0.79288,-0.03767 0.94354,-0.0678l-0.4407,1.22039c-0.2034,-0.05273 -0.43316,-0.1017 -0.68929,-0.1469c-0.226,-0.03767 -0.49908,-0.07345 -0.81924,-0.10735c-0.32016,-0.0339 -0.69118,-0.05085 -1.11304,-0.05085c-0.15067,0 -0.32393,0.00565 -0.51979,0.01695c-0.19586,0.0113 -0.3842,0.02448 -0.56499,0.03955c-0.21093,0.01507 -0.42563,0.03013 -0.64409,0.0452l0,4.46345c0.61019,-0.00753 1.16012,-0.0226 1.64978,-0.0452c0.48966,-0.0226 0.90776,-0.05273 1.25429,-0.0904c0.4068,-0.03013 0.76463,-0.07157 1.07349,-0.1243l-0.2712,1.34469c-0.41433,-0.05273 -0.83242,-0.09793 -1.25429,-0.1356c-0.3616,-0.03767 -0.76086,-0.06968 -1.19779,-0.09605c-0.43693,-0.02637 -0.85502,-0.03955 -1.25429,-0.03955l0,5.13015c0.70059,0 1.34469,-0.02825 1.93228,-0.08475c0.58759,-0.0565 1.09986,-0.11865 1.53678,-0.18645c0.51226,-0.08287 0.97556,-0.17703 1.38989,-0.2825l-0.2599,1.48028c-0.113,-0.00753 -0.29568,-0.01695 -0.54804,-0.02825c-0.25236,-0.0113 -0.51603,-0.01883 -0.79099,-0.0226c-0.27496,-0.00377 -0.53298,-0.00753 -0.77404,-0.0113c-0.24106,-0.00377 -0.4068,-0.00565 -0.49719,-0.00565l-4.28266,0l0,-0.0452c0.05273,-0.1582 0.09982,-0.3616 0.14125,-0.61019c0.04143,-0.2486 0.07533,-0.55558 0.1017,-0.92094c0.02637,-0.36536 0.04708,-0.80041 0.06215,-1.30514c0.01507,-0.50473 0.0226,-1.09609 0.0226,-1.77408l0,-2.84757c0,-0.67799 -0.00753,-1.26747 -0.0226,-1.76843c-0.01507,-0.50096 -0.03578,-0.93412 -0.06215,-1.29949c-0.02637,-0.36536 -0.06027,-0.67234 -0.1017,-0.92094c-0.04143,-0.2486 -0.08852,-0.452 -0.14125,-0.61019l0,-0.0452l0,0z" data-paper-data="{&quot;elementType&quot;:&quot;letter&quot;,&quot;baseline&quot;:53.076171875,&quot;baselineProportion&quot;:0.9945105215004575,&quot;fontSize&quot;:100}"></path><path d="M198.20452,175.24959c0.09793,-0.10547 0.19775,-0.29756 0.29945,-0.57629c0.1017,-0.27873 0.18268,-0.58006 0.24295,-0.90399c0.0904,-0.52733 0.19021,-1.12811 0.29945,-1.80233c0.10923,-0.67423 0.21846,-1.36917 0.3277,-2.08483c0.10923,-0.71566 0.21658,-1.42944 0.32205,-2.14133c0.10547,-0.71189 0.2034,-1.37294 0.2938,-1.98313c0.0904,-0.61019 0.16573,-1.14505 0.226,-1.60458c0.06027,-0.45953 0.1017,-0.79476 0.1243,-1.00569l1.34469,0l5.39004,9.6501l5.52564,-9.6501l1.09609,0l1.35599,9.4354c0.0678,0.4294 0.13372,0.79476 0.19775,1.09609c0.06403,0.30133 0.12618,0.55558 0.18645,0.76274c0.06027,0.20716 0.12053,0.37478 0.1808,0.50284c0.06027,0.12807 0.113,0.22976 0.1582,0.3051l0,0.0452l-2.77977,0l0,-0.0452c0.0226,-0.06027 0.05085,-0.16196 0.08475,-0.3051c0.0339,-0.14313 0.05085,-0.31263 0.05085,-0.50849c0,-0.12807 -0.00942,-0.31263 -0.02825,-0.55369c-0.01883,-0.24106 -0.04708,-0.47836 -0.08475,-0.71189l-0.97179,-6.92683l-5.14145,9.02861l-0.80229,-0.113l-5.05105,-8.98341c-0.18833,1.26559 -0.35406,2.43701 -0.49719,3.51426c-0.06027,0.45953 -0.12053,0.91906 -0.1808,1.37859c-0.06027,0.45953 -0.113,0.89081 -0.1582,1.29384c-0.0452,0.40303 -0.08287,0.75898 -0.113,1.06784c-0.03013,0.30886 -0.0452,0.53863 -0.0452,0.68929c0,0.18833 0.00377,0.35218 0.0113,0.49154c0.00753,0.13937 0.01883,0.26178 0.0339,0.36725c0.01507,0.12053 0.03013,0.226 0.0452,0.3164l-1.94358,0l0,-0.0452z" data-paper-data="{&quot;elementType&quot;:&quot;letter&quot;,&quot;baseline&quot;:52.490234375,&quot;baselineProportion&quot;:1,&quot;fontSize&quot;:100}"></path><path d="M221.51518,163.12481c0.14313,0.00753 0.29003,0.0113 0.4407,0.0113c0.12807,0.00753 0.26743,0.0113 0.4181,0.0113c0.15067,0 0.29756,0 0.4407,0c0.23353,0 0.55746,-0.01507 0.97179,-0.0452c0.41433,-0.03013 0.93036,-0.0452 1.54808,-0.0452c0.54993,0 1.06031,0.06592 1.53113,0.19775c0.47083,0.13183 0.87762,0.32205 1.22039,0.57064c0.34276,0.2486 0.61019,0.55369 0.80229,0.91529c0.1921,0.3616 0.28815,0.77216 0.28815,1.23169c0,0.39173 -0.05462,0.74014 -0.16385,1.04524c-0.10923,0.3051 -0.26555,0.57253 -0.46895,0.80229c-0.2034,0.22976 -0.44823,0.42186 -0.73449,0.57629c-0.28626,0.15443 -0.60266,0.27685 -0.94919,0.36725c0.50473,0.07533 0.96426,0.19963 1.37859,0.3729c0.41433,0.17326 0.76839,0.38985 1.06219,0.64974c0.2938,0.2599 0.51979,0.56499 0.67799,0.91529c0.1582,0.3503 0.2373,0.74014 0.2373,1.16954c0,1.19025 -0.42563,2.08106 -1.27689,2.67242c-0.85126,0.59136 -2.12061,0.88704 -3.80806,0.88704c-0.1808,0 -0.40491,-0.00753 -0.67234,-0.0226c-0.26743,-0.01507 -0.54616,-0.03013 -0.83619,-0.0452c-0.29003,-0.01507 -0.56876,-0.03013 -0.83619,-0.0452c-0.26743,-0.01507 -0.49154,-0.0226 -0.67234,-0.0226l-0.59889,0l0,-0.0452c0.05273,-0.1582 0.09982,-0.3616 0.14125,-0.61019c0.04143,-0.2486 0.07533,-0.55558 0.1017,-0.92094c0.02637,-0.36536 0.04708,-0.80041 0.06215,-1.30514c0.01507,-0.50473 0.0226,-1.09609 0.0226,-1.77408l0,-2.84757c0,-0.67799 -0.00753,-1.26935 -0.0226,-1.77408c-0.01507,-0.50473 -0.03578,-0.94166 -0.06215,-1.31079c-0.02637,-0.36913 -0.06027,-0.67799 -0.1017,-0.92659c-0.04143,-0.2486 -0.08852,-0.452 -0.14125,-0.61019l0,-0.0452z M225.31194,169.35105c-0.3616,0 -0.66858,0.01318 -0.92094,0.03955c-0.25236,0.02637 -0.44635,0.05085 -0.58194,0.07345l0,1.17519c0,0.64786 0.00188,1.19025 0.00565,1.62718c0.00377,0.43693 0.0113,0.80229 0.0226,1.09609c0.0113,0.2938 0.02072,0.52921 0.02825,0.70624c0.00753,0.17703 0.01883,0.32958 0.0339,0.45765c0.19586,0.05273 0.40491,0.08663 0.62714,0.1017c0.22223,0.01507 0.39738,0.0226 0.52544,0.0226c1.03959,0 1.7948,-0.22788 2.26563,-0.68364c0.47083,-0.45576 0.70624,-1.162 0.70624,-2.11873c0,-0.3616 -0.0565,-0.69683 -0.1695,-1.00569c-0.113,-0.30886 -0.2825,-0.57253 -0.50849,-0.79099c-0.226,-0.21846 -0.50849,-0.38985 -0.84749,-0.51414c-0.339,-0.1243 -0.73449,-0.18645 -1.18649,-0.18645 M223.80906,168.58266c0.15067,0.0226 0.28626,0.03578 0.4068,0.03955c0.12053,0.00377 0.24483,0.00565 0.3729,0.00565c0.76086,0 1.3654,-0.21093 1.81363,-0.63279c0.44823,-0.42186 0.67234,-1.05089 0.67234,-1.88708c0,-0.339 -0.0452,-0.65163 -0.1356,-0.93789c-0.0904,-0.28626 -0.22035,-0.53109 -0.38985,-0.73449c-0.1695,-0.2034 -0.38043,-0.3616 -0.63279,-0.4746c-0.25236,-0.113 -0.54051,-0.1695 -0.86444,-0.1695c-0.21846,0 -0.40303,0.00942 -0.55369,0.02825c-0.15067,0.01883 -0.27873,0.03578 -0.3842,0.05085c-0.12053,0.03013 -0.22223,0.0565 -0.3051,0.0791l0,4.63295" data-paper-data="{&quot;elementType&quot;:&quot;letter&quot;,&quot;baseline&quot;:52.880859375,&quot;baselineProportion&quot;:0.989041095890411,&quot;fontSize&quot;:100}"></path><path d="M235.86504,163.14741c0.73826,0 1.49535,-0.00188 2.27128,-0.00565c0.77593,-0.00377 1.49535,-0.0113 2.15828,-0.0226c0.66293,-0.0113 1.23357,-0.02448 1.71193,-0.03955c0.47836,-0.01507 0.79288,-0.03767 0.94354,-0.0678l-0.4407,1.22039c-0.2034,-0.05273 -0.43316,-0.1017 -0.68929,-0.1469c-0.226,-0.03767 -0.49908,-0.07345 -0.81924,-0.10735c-0.32016,-0.0339 -0.69118,-0.05085 -1.11304,-0.05085c-0.15067,0 -0.32393,0.00565 -0.51979,0.01695c-0.19586,0.0113 -0.3842,0.02448 -0.56499,0.03955c-0.21093,0.01507 -0.42563,0.03013 -0.64409,0.0452l0,4.46345c0.61019,-0.00753 1.16012,-0.0226 1.64978,-0.0452c0.48966,-0.0226 0.90776,-0.05273 1.25429,-0.0904c0.4068,-0.03013 0.76463,-0.07157 1.07349,-0.1243l-0.2712,1.34469c-0.41433,-0.05273 -0.83242,-0.09793 -1.25429,-0.1356c-0.3616,-0.03767 -0.76086,-0.06968 -1.19779,-0.09605c-0.43693,-0.02637 -0.85502,-0.03955 -1.25429,-0.03955l0,5.13015c0.70059,0 1.34469,-0.02825 1.93228,-0.08475c0.58759,-0.0565 1.09986,-0.11865 1.53678,-0.18645c0.51226,-0.08287 0.97556,-0.17703 1.38989,-0.2825l-0.2599,1.48028c-0.113,-0.00753 -0.29568,-0.01695 -0.54804,-0.02825c-0.25236,-0.0113 -0.51603,-0.01883 -0.79099,-0.0226c-0.27496,-0.00377 -0.53298,-0.00753 -0.77404,-0.0113c-0.24106,-0.00377 -0.4068,-0.00565 -0.49719,-0.00565l-4.28266,0l0,-0.0452c0.05273,-0.1582 0.09982,-0.3616 0.14125,-0.61019c0.04143,-0.2486 0.07533,-0.55558 0.1017,-0.92094c0.02637,-0.36536 0.04708,-0.80041 0.06215,-1.30514c0.01507,-0.50473 0.0226,-1.09609 0.0226,-1.77408l0,-2.84757c0,-0.67799 -0.00753,-1.26747 -0.0226,-1.76843c-0.01507,-0.50096 -0.03578,-0.93412 -0.06215,-1.29949c-0.02637,-0.36536 -0.06027,-0.67234 -0.1017,-0.92094c-0.04143,-0.2486 -0.08852,-0.452 -0.14125,-0.61019l0,-0.0452l0,0z" data-paper-data="{&quot;elementType&quot;:&quot;letter&quot;,&quot;baseline&quot;:53.076171875,&quot;baselineProportion&quot;:0.9945105215004575,&quot;fontSize&quot;:100}"></path><path d="M252.89297,170.13074c-0.15067,0.0226 -0.29945,0.03578 -0.44635,0.03955c-0.1469,0.00377 -0.29568,0.00565 -0.44635,0.00565c-0.12053,0 -0.25236,-0.00377 -0.3955,-0.0113c-0.14313,-0.00753 -0.29003,-0.01883 -0.4407,-0.0339l0,0.55369c0,0.67046 0.00753,1.25617 0.0226,1.75713c0.01507,0.50096 0.03578,0.93224 0.06215,1.29384c0.02637,0.3616 0.05838,0.66481 0.09605,0.90964c0.03767,0.24483 0.08287,0.44635 0.1356,0.60454l0,0.0452l-2.61027,0l0,-0.0452c0.05273,-0.1582 0.09982,-0.3616 0.14125,-0.61019c0.04143,-0.2486 0.07533,-0.55558 0.1017,-0.92094c0.02637,-0.36536 0.04708,-0.80041 0.06215,-1.30514c0.01507,-0.50473 0.0226,-1.09609 0.0226,-1.77408l0,-2.84757c0,-0.67799 -0.00753,-1.26747 -0.0226,-1.76843c-0.01507,-0.50096 -0.03578,-0.93412 -0.06215,-1.29949c-0.02637,-0.36536 -0.06027,-0.67234 -0.1017,-0.92094c-0.04143,-0.2486 -0.08852,-0.452 -0.14125,-0.61019l0,-0.0452c0.12053,0.00753 0.2486,0.01507 0.3842,0.0226c0.113,0.00753 0.23918,0.01318 0.37855,0.01695c0.13937,0.00377 0.28061,0.00565 0.42375,0.00565c0.24106,0 0.59889,-0.0226 1.07349,-0.0678c0.4746,-0.0452 1.03206,-0.0678 1.67238,-0.0678c0.64786,0 1.23734,0.0791 1.76843,0.2373c0.53109,0.1582 0.98686,0.3842 1.36729,0.67799c0.38043,0.2938 0.67423,0.65163 0.88139,1.07349c0.20716,0.42186 0.31075,0.89269 0.31075,1.41249c0,0.4068 -0.0565,0.77781 -0.1695,1.11304c-0.113,0.33523 -0.2712,0.63656 -0.4746,0.90399c-0.2034,0.26743 -0.44446,0.50284 -0.72319,0.70624c-0.27873,0.2034 -0.58759,0.38043 -0.92659,0.53109l2.36168,3.33347c0.2034,0.2712 0.40868,0.53109 0.61584,0.77969c0.20716,0.2486 0.40491,0.47083 0.59324,0.66669c0.18833,0.19586 0.36536,0.35971 0.53109,0.49154c0.16573,0.13183 0.3051,0.22035 0.4181,0.26555l0,0.0452l-2.96057,0c0,-0.0678 -0.04708,-0.18645 -0.14125,-0.35595c-0.09417,-0.1695 -0.2034,-0.34653 -0.3277,-0.53109c-0.1243,-0.18456 -0.2486,-0.36348 -0.3729,-0.53674c-0.1243,-0.17326 -0.21658,-0.30133 -0.27685,-0.3842l-2.38428,-3.35607z M251.16409,169.39625c0.15067,0.0226 0.30321,0.03955 0.45765,0.05085c0.15443,0.0113 0.30321,0.01695 0.44635,0.01695c0.94166,0 1.65543,-0.25236 2.14133,-0.75709c0.48589,-0.50473 0.72884,-1.26182 0.72884,-2.27128c0,-0.82866 -0.19398,-1.48405 -0.58194,-1.96618c-0.38796,-0.48213 -0.95861,-0.72319 -1.71193,-0.72319c-0.24106,0 -0.45388,0.00942 -0.63844,0.02825c-0.18456,0.01883 -0.34088,0.03955 -0.46895,0.06215c-0.14313,0.03013 -0.26743,0.06027 -0.3729,0.0904l0,5.46914" data-paper-data="{&quot;elementType&quot;:&quot;letter&quot;,&quot;baseline&quot;:52.880859375,&quot;baselineProportion&quot;:1,&quot;fontSize&quot;:100}"></path><path d="M269.25421,165.50909l-0.226,0c-0.0452,-0.12807 -0.11865,-0.29003 -0.22035,-0.48589c-0.1017,-0.19586 -0.2373,-0.38796 -0.4068,-0.57629c-0.1695,-0.18833 -0.37855,-0.34841 -0.62714,-0.48025c-0.2486,-0.13183 -0.54616,-0.19775 -0.89269,-0.19775c-0.26366,0 -0.49908,0.04332 -0.70624,0.12995c-0.20716,0.08663 -0.38231,0.20528 -0.52544,0.35595c-0.14313,0.15067 -0.25236,0.32958 -0.3277,0.53674c-0.07533,0.20716 -0.113,0.43128 -0.113,0.67234c0,0.39173 0.11865,0.76463 0.35595,1.11869c0.2373,0.35406 0.53298,0.70624 0.88704,1.05654c0.35406,0.3503 0.73826,0.70248 1.15259,1.05654c0.41433,0.35406 0.79853,0.72319 1.15259,1.10739c0.35406,0.3842 0.64974,0.79099 0.88704,1.22039c0.2373,0.4294 0.35595,0.88892 0.35595,1.37859c0,0.3616 -0.06592,0.73449 -0.19775,1.11869c-0.13183,0.3842 -0.34465,0.73073 -0.63844,1.03959c-0.2938,0.30886 -0.67046,0.56311 -1.12999,0.76274c-0.45953,0.19963 -1.01699,0.29945 -1.67238,0.29945c-0.3616,0 -0.70624,-0.03013 -1.03394,-0.0904c-0.3277,-0.06027 -0.62903,-0.13372 -0.90399,-0.22035c-0.27496,-0.08663 -0.51979,-0.1808 -0.73449,-0.2825c-0.2147,-0.1017 -0.39361,-0.19775 -0.53674,-0.28815l0.2034,-2.13568l0.2373,0c0.07533,0.26366 0.18645,0.52733 0.33335,0.79099c0.1469,0.26366 0.3277,0.50284 0.54239,0.71754c0.2147,0.2147 0.46706,0.38796 0.75709,0.51979c0.29003,0.13183 0.62338,0.19775 1.00004,0.19775c0.26366,0 0.51226,-0.04332 0.74579,-0.12995c0.23353,-0.08663 0.43505,-0.20905 0.60454,-0.36725c0.1695,-0.1582 0.30321,-0.35218 0.40115,-0.58194c0.09793,-0.22976 0.1469,-0.48778 0.1469,-0.77404c0,-0.339 -0.0678,-0.65351 -0.2034,-0.94354c-0.1356,-0.29003 -0.3164,-0.56876 -0.54239,-0.83619c-0.226,-0.26743 -0.48025,-0.52544 -0.76274,-0.77404c-0.2825,-0.2486 -0.57441,-0.50096 -0.87574,-0.75709c-0.30133,-0.25613 -0.59324,-0.51791 -0.87574,-0.78534c-0.2825,-0.26743 -0.53674,-0.55558 -0.76274,-0.86444c-0.226,-0.30886 -0.4068,-0.63844 -0.54239,-0.98874c-0.1356,-0.3503 -0.2034,-0.73638 -0.2034,-1.15824c0,-0.44446 0.09417,-0.84372 0.2825,-1.19779c0.18833,-0.35406 0.43693,-0.65351 0.74579,-0.89834c0.30886,-0.24483 0.66293,-0.43316 1.06219,-0.56499c0.39926,-0.13183 0.81359,-0.19775 1.24299,-0.19775c0.3164,0 0.61208,0.0226 0.88704,0.0678c0.27496,0.0452 0.52356,0.09982 0.74579,0.16385c0.22223,0.06403 0.41621,0.12807 0.58194,0.1921c0.16573,0.06403 0.30133,0.11488 0.4068,0.15255l-0.0565,1.92098z" data-paper-data="{&quot;elementType&quot;:&quot;letter&quot;,&quot;baseline&quot;:53.076171875,&quot;baselineProportion&quot;:0.9740143369175627,&quot;fontSize&quot;:100}"></path></g></g></g></g><g data-paper-data="{&quot;elementType&quot;:&quot;emblem&quot;}" stroke="none" stroke-miterlimit="4" font-family="&quot;Helvetica Neue&quot;, Helvetica, Arial, sans-serif" font-weight="bold" font-size="24"><path d="M107.88094,130.58537c-3.36013,-0.8905 -7.54176,-1.99819 -8.38754,-3.00239c-5.4963,-6.53628 -2.1745,-14.03459 2.03524,-21.78333c2.04929,-3.7728 3.53005,-6.49922 2.10168,-8.90114c-0.44205,-0.74357 -1.54336,-1.99052 -3.95294,-1.99052c-0.61964,0 -1.31467,0.07666 -2.1234,0.23636c-7.59542,1.49098 -12.58578,8.07963 -17.86999,15.05669c-3.89289,5.13857 -7.9161,10.45216 -13.24758,14.21474c-2.49518,1.76055 -5.09385,3.40484 -7.84455,5.14623c-12.36347,7.82156 -26.37763,16.6882 -28.45758,36.96777c-0.76785,7.48682 1.76822,14.70406 7.33351,20.86983c9.7022,10.74857 28.31577,17.6924 47.42249,17.6924c14.00138,0 28.06152,-3.72169 38.57629,-10.21197c11.67356,-7.20575 18.10252,-17.16603 18.10252,-28.04619c0,-27.32306 -21.0883,-32.91007 -33.68814,-36.24848z M60.507,172.58439c-2.82225,0 -5.11046,-2.28821 -5.11046,-5.11046c0,-2.82225 2.28821,-5.11046 5.11046,-5.11046c2.82225,0 5.11046,2.28821 5.11046,5.11046c0,2.82225 -2.28821,5.11046 -5.11046,5.11046z M88.04342,195.37192c-5.0683,0 -9.19244,-5.2165 -9.19244,-11.62757c0,-0.22614 0.00639,-0.451 0.01661,-0.6733c0.05366,-1.17285 0.24402,-2.29971 0.55321,-3.35629c1.03359,-0.55576 2.13873,-1.01698 3.29752,-1.37599c1.80271,-0.55832 3.73702,-0.86622 5.75182,-0.86622c1.64173,0 3.22981,0.2057 4.73739,0.58259c1.15369,0.28874 2.25882,0.67841 3.30263,1.16007c0.3424,1.01954 0.57109,2.1119 0.66947,3.25408c0.03577,0.41906 0.05622,0.84323 0.05622,1.27378c0,6.41235 -4.12414,11.62885 -9.19244,11.62885z M113.70303,172.58439c-2.82225,0 -5.11046,-2.28821 -5.11046,-5.11046c0,-2.82225 2.28821,-5.11046 5.11046,-5.11046c2.82225,0 5.11046,2.28821 5.11046,5.11046c0,2.82225 -2.28821,5.11046 -5.11046,5.11046z"></path></g></g></svg>